<?xml version="1.0" encoding="UTF-8" ?>
<!DOCTYPE svg PUBLIC "-//W3C//DTD SVG 1.1//EN" "http://www.w3.org/Graphics/SVG/1.1/DTD/svg11.dtd">
<svg width="640pt" height="640pt" viewBox="0 0 640 640" version="1.1" xmlns="http://www.w3.org/2000/svg">
<g id="#101010ff">
<path fill="#101010" opacity="1.00" d=" M 0.00 0.00 L 640.00 0.00 L 640.00 640.00 L 0.00 640.00 L 0.00 0.00 M 48.52 194.51 C 48.63 249.54 48.57 304.57 48.54 359.59 C 58.82 359.75 69.11 359.58 79.39 359.69 C 79.48 388.30 79.19 416.91 79.54 445.51 C 239.05 445.46 398.57 445.50 558.08 445.49 C 558.08 444.48 558.06 443.49 558.01 442.49 C 558.46 414.90 558.04 387.29 558.21 359.70 C 569.29 359.57 580.37 359.77 591.45 359.58 C 591.44 304.56 591.36 249.54 591.50 194.51 C 410.51 194.49 229.51 194.48 48.52 194.51 Z" />
<path fill="#101010" opacity="1.00" d=" M 112.88 244.55 C 121.25 244.56 129.62 244.51 137.99 244.58 C 142.92 245.64 148.94 246.43 151.50 251.44 C 155.25 259.14 153.23 268.00 153.98 276.23 C 153.32 279.92 151.55 283.28 149.13 286.11 C 150.11 291.16 151.59 296.09 153.19 300.98 C 154.07 304.27 155.06 307.53 155.94 310.82 C 149.97 311.39 143.95 311.40 138.00 310.63 C 136.49 303.75 135.29 296.73 132.99 290.06 C 132.36 289.72 131.10 289.04 130.47 288.70 C 130.11 296.01 130.32 303.33 130.37 310.65 C 124.42 311.41 118.41 311.00 112.45 311.48 C 113.01 307.68 113.30 303.85 113.18 300.01 C 112.89 281.52 113.47 263.03 112.88 244.55 M 130.37 275.60 C 132.29 275.12 135.07 276.27 136.32 274.29 C 137.98 269.50 137.03 264.38 136.53 259.48 C 134.51 259.02 132.48 258.61 130.44 258.31 C 130.24 264.07 130.26 269.84 130.37 275.60 Z" />
<path fill="#101010" opacity="1.00" d=" M 287.23 244.50 C 295.54 244.37 303.88 244.87 312.18 244.24 C 312.80 251.51 314.05 258.71 314.92 265.95 C 316.00 272.69 316.14 279.60 318.06 286.20 C 318.88 282.66 319.55 279.07 319.75 275.44 C 320.20 269.24 321.35 263.11 321.91 256.92 C 322.71 253.01 323.34 249.07 323.73 245.10 C 331.94 244.37 340.19 244.87 348.43 244.75 C 348.66 266.81 348.48 288.87 348.57 310.93 C 343.06 310.82 337.55 310.81 332.04 310.73 C 332.38 308.83 332.53 306.90 332.54 304.97 C 332.43 292.04 332.64 279.10 332.46 266.17 C 332.05 266.36 331.23 266.74 330.82 266.93 C 330.40 270.66 329.91 274.38 329.64 278.12 C 328.70 284.84 327.43 291.53 327.26 298.33 C 327.08 297.30 326.92 296.28 326.75 295.26 C 326.47 300.52 325.77 305.75 325.22 310.99 C 320.12 310.75 315.02 310.77 309.93 310.89 C 309.39 304.50 308.08 298.15 308.45 291.70 C 308.25 293.34 308.07 294.99 307.87 296.63 C 307.08 286.31 305.42 276.08 303.98 265.84 C 303.82 266.56 303.50 268.00 303.34 268.72 L 302.90 270.66 C 302.18 284.01 302.83 297.40 302.56 310.77 C 297.32 310.81 292.09 310.84 286.86 310.80 C 287.08 288.70 286.34 266.58 287.23 244.50 Z" />
<path fill="#101010" opacity="1.00" d=" M 240.64 244.44 C 246.30 244.65 251.97 244.57 257.64 244.48 C 259.34 253.03 257.32 261.86 258.86 270.43 C 260.12 267.37 261.22 264.27 262.17 261.10 C 262.55 260.10 262.92 259.10 263.28 258.09 C 264.00 255.58 264.80 253.09 265.69 250.64 C 266.52 248.82 267.42 247.03 268.31 245.24 C 273.76 245.11 279.22 244.99 284.68 244.95 C 282.33 252.15 278.77 258.92 277.05 266.33 C 275.80 269.53 274.11 272.63 273.53 276.04 C 273.74 279.17 275.30 282.00 276.27 284.94 C 278.73 291.81 281.20 298.69 283.79 305.52 C 284.24 306.89 284.66 308.27 285.03 309.68 C 284.99 309.97 284.91 310.54 284.87 310.83 C 279.09 310.82 273.30 310.90 267.52 310.62 L 266.75 310.59 C 266.57 309.37 266.39 308.16 266.21 306.95 C 264.99 303.36 263.96 299.70 262.79 296.09 C 262.65 295.55 262.36 294.46 262.21 293.92 C 261.43 290.58 260.04 287.45 258.67 284.33 C 257.91 293.16 257.55 302.03 257.76 310.90 L 257.48 310.91 C 251.88 310.79 246.28 310.77 240.68 310.77 C 240.93 288.67 240.98 266.55 240.64 244.44 Z" />
<path fill="#101010" opacity="1.00" d=" M 446.65 244.57 C 452.55 244.54 458.45 244.52 464.35 244.62 C 464.61 253.19 463.88 261.81 464.78 270.35 C 465.40 269.04 466.07 267.76 466.66 266.44 C 469.83 259.56 471.46 252.11 474.22 245.07 C 479.75 244.84 485.28 244.71 490.82 244.78 C 487.13 255.40 482.64 265.71 478.66 276.22 C 481.19 282.97 483.13 289.96 486.56 296.33 C 488.07 300.55 489.66 304.75 491.09 309.00 C 491.20 309.43 491.42 310.29 491.53 310.72 C 485.73 310.95 479.93 310.77 474.14 310.77 L 472.92 310.77 C 472.02 305.75 470.33 300.93 468.79 296.08 C 468.34 294.40 467.84 292.74 467.39 291.06 C 466.93 289.33 466.40 287.61 465.55 286.03 L 465.04 284.99 C 463.82 285.47 464.44 286.95 464.30 287.94 C 464.49 295.54 464.15 303.16 464.55 310.76 C 458.58 311.26 452.58 311.35 446.62 310.70 C 446.73 288.66 446.62 266.61 446.65 244.57 Z" />
<path fill="#101010" opacity="1.00" d=" M 528.41 259.38 C 528.32 254.46 528.33 249.54 528.39 244.62 C 541.76 244.47 555.15 244.85 568.51 244.42 C 568.40 249.43 568.49 254.45 568.39 259.47 C 564.52 259.45 560.64 259.58 556.78 259.29 C 556.53 276.45 556.73 293.62 556.68 310.79 C 550.93 310.89 545.17 310.75 539.42 310.87 C 539.82 293.72 539.52 276.56 539.57 259.40 C 535.85 259.38 532.13 259.38 528.41 259.38 Z" />
<path fill="#101010" opacity="1.00" d=" M 401.70 245.64 C 409.97 245.35 418.25 245.94 426.51 245.35 C 431.94 245.29 438.13 247.54 440.11 253.06 C 442.74 260.73 441.25 268.99 441.82 276.92 C 441.11 280.34 439.46 283.47 437.16 286.10 C 438.61 294.66 442.33 302.63 443.84 311.18 C 437.87 311.19 431.89 311.43 425.96 310.60 C 424.84 304.36 423.31 298.20 421.76 292.06 C 421.67 290.14 419.99 289.31 418.50 288.55 C 417.24 295.75 418.85 303.02 418.26 310.27 C 418.12 310.36 417.86 310.55 417.72 310.65 C 412.41 310.34 407.09 310.02 401.77 310.18 C 401.28 300.13 401.53 290.06 401.47 280.00 C 401.68 268.55 401.22 257.09 401.70 245.64 M 417.60 267.00 C 418.74 269.69 418.25 272.68 418.35 275.52 C 420.16 275.48 421.99 275.45 423.81 275.42 L 423.82 275.17 C 425.59 272.42 425.31 269.09 425.32 265.98 C 425.19 263.72 425.59 261.07 423.69 259.40 C 423.68 259.22 423.66 258.86 423.64 258.68 C 421.89 258.64 420.14 258.59 418.40 258.55 C 418.26 261.36 418.78 264.34 417.60 267.00 Z" />
<path fill="#101010" opacity="1.00" d=" M 493.38 245.29 C 504.17 245.24 514.96 245.30 525.75 245.24 C 526.09 249.50 526.22 253.78 526.17 258.06 C 520.63 258.10 515.08 258.20 509.54 258.31 C 509.47 262.37 509.13 266.47 509.75 270.50 C 514.18 271.98 518.96 271.12 523.55 271.27 C 523.62 275.44 523.66 279.61 523.69 283.78 C 518.95 283.75 514.22 284.07 509.49 284.17 C 509.46 288.32 509.47 292.48 509.45 296.64 C 509.75 296.64 510.33 296.65 510.62 296.65 C 515.94 296.67 521.27 296.70 526.60 296.60 C 526.73 301.36 526.45 306.13 526.89 310.88 L 526.21 310.83 C 515.14 309.25 503.95 310.74 492.84 309.82 C 493.27 291.61 492.76 273.39 492.97 255.18 C 493.06 251.88 493.23 248.58 493.38 245.29 Z" />
<path fill="#101010" opacity="1.00" d=" M 85.35 359.49 C 120.25 359.88 155.15 359.54 190.05 359.65 C 310.74 359.68 431.42 359.61 552.10 359.69 C 551.99 386.52 551.96 413.35 552.11 440.17 C 396.52 440.24 240.92 440.25 85.33 440.17 C 85.28 413.28 85.23 386.38 85.35 359.49 M 156.12 390.66 L 154.79 390.78 L 154.79 392.09 C 154.46 401.27 154.79 410.48 154.63 419.67 C 155.98 419.69 157.33 419.70 158.68 419.72 C 158.74 412.67 158.61 405.62 158.76 398.57 C 164.78 405.34 170.18 412.62 175.93 419.61 C 177.13 419.64 178.32 419.66 179.52 419.70 C 179.50 410.26 179.52 400.83 179.53 391.40 C 178.51 391.37 176.47 391.32 175.45 391.29 C 175.34 398.28 175.59 405.27 175.27 412.26 C 169.13 405.14 163.79 397.35 157.33 390.52 C 157.03 390.56 156.42 390.62 156.12 390.66 M 136.55 391.10 C 136.91 400.73 136.54 410.36 136.77 419.98 C 138.27 419.83 139.78 419.72 141.29 419.60 C 141.13 411.73 141.22 403.86 141.24 395.99 C 141.25 394.09 141.10 392.16 140.40 390.38 C 139.12 390.65 137.84 390.89 136.55 391.10 M 235.07 395.08 C 232.11 402.07 228.84 408.93 225.72 415.84 C 225.18 417.11 224.63 418.38 224.09 419.65 C 225.53 419.66 226.99 419.68 228.44 419.70 C 229.17 417.73 229.92 415.78 230.69 413.85 C 230.98 413.52 231.56 412.86 231.85 412.53 C 236.72 412.51 241.59 412.56 246.45 412.47 C 247.64 414.80 248.74 417.18 249.75 419.60 C 251.18 419.63 252.58 419.63 254.02 419.66 C 252.51 416.01 250.91 412.42 249.22 408.86 C 247.79 405.61 246.32 402.38 244.86 399.15 C 243.76 396.60 242.52 394.12 241.37 391.60 C 240.12 391.17 238.88 390.75 237.64 390.33 C 236.82 391.93 235.96 393.51 235.07 395.08 M 318.94 391.92 C 318.08 392.58 317.22 393.25 316.37 393.92 C 316.33 395.96 316.35 398.00 316.37 400.05 C 317.10 401.41 317.95 402.71 318.96 403.90 C 317.17 405.21 315.42 406.57 313.61 407.86 C 312.59 410.23 312.29 412.80 312.29 415.36 C 313.97 416.78 315.57 418.39 317.61 419.31 C 320.76 420.13 324.06 419.74 327.27 419.49 C 328.93 418.61 330.67 416.65 332.72 417.55 C 334.24 418.60 335.88 419.50 337.77 419.76 C 337.63 417.17 335.94 415.21 334.46 413.26 C 335.52 411.13 336.36 408.89 336.81 406.56 C 335.97 406.57 334.30 406.59 333.46 406.60 C 332.58 407.90 332.43 409.50 332.00 410.98 C 329.22 409.25 326.91 407.00 325.06 404.30 C 326.95 402.81 328.75 401.21 330.47 399.53 C 330.49 397.85 330.51 396.16 330.51 394.48 C 329.70 393.60 328.90 392.72 328.10 391.84 C 327.08 391.44 326.06 391.04 325.05 390.64 C 324.30 390.65 322.78 390.68 322.02 390.70 C 320.99 391.11 319.97 391.51 318.94 391.92 M 401.21 391.32 C 401.23 398.57 400.98 405.84 401.63 413.08 C 402.91 414.84 404.03 416.81 405.86 418.09 C 409.40 420.82 414.14 419.58 418.25 419.50 C 420.92 417.97 423.05 415.78 424.57 413.10 L 424.49 412.38 C 425.87 405.47 425.85 398.18 424.72 391.24 L 424.72 391.17 C 423.62 391.23 422.52 391.29 421.43 391.35 C 420.52 398.10 421.09 404.93 420.76 411.73 C 418.40 417.40 409.25 418.24 406.25 412.81 C 404.70 408.76 404.56 404.29 404.82 400.00 C 405.13 398.64 405.12 397.32 404.79 396.03 C 404.73 394.45 404.69 392.87 404.62 391.30 C 403.48 391.30 402.34 391.31 401.21 391.32 M 478.19 401.10 C 476.51 404.77 474.88 408.46 473.21 412.13 C 472.02 414.61 470.97 417.15 469.97 419.71 C 471.03 419.68 473.13 419.62 474.19 419.59 C 475.04 417.34 475.84 415.04 477.07 412.98 C 482.03 411.96 487.27 412.80 492.34 412.53 C 493.37 414.92 494.33 417.36 495.65 419.62 C 497.05 419.71 498.46 419.66 499.87 419.68 C 497.34 413.73 494.59 407.88 491.85 402.02 C 491.26 400.68 490.67 399.34 490.09 398.01 C 489.24 395.95 488.30 393.94 487.30 391.95 C 487.04 391.63 486.52 390.99 486.25 390.66 L 484.66 390.43 C 480.80 392.61 480.15 397.47 478.19 401.10 M 530.12 391.26 C 529.50 397.83 530.02 404.42 529.74 411.01 C 529.32 410.82 528.49 410.46 528.08 410.28 C 523.24 403.88 518.02 397.78 513.14 391.42 C 512.21 391.38 510.35 391.31 509.42 391.27 C 509.45 400.79 509.40 410.31 509.43 419.82 C 510.78 419.75 512.13 419.69 513.49 419.63 C 513.51 412.68 513.30 405.71 513.63 398.76 C 519.21 405.58 524.95 412.29 530.13 419.41 C 531.29 419.56 532.46 419.70 533.65 419.86 C 535.36 410.44 532.98 400.92 534.43 391.49 C 532.98 391.40 531.55 391.33 530.12 391.26 M 105.45 391.35 C 105.43 400.79 105.47 410.23 105.42 419.67 C 106.81 419.67 108.20 419.70 109.59 419.72 C 109.59 415.94 109.59 412.16 109.56 408.38 C 114.52 408.29 119.47 408.33 124.43 408.28 C 124.24 407.01 124.05 405.75 123.85 404.49 C 119.09 404.53 114.33 404.56 109.58 404.45 C 109.59 401.16 109.59 397.87 109.61 394.58 C 114.93 394.49 120.26 394.49 125.58 394.53 C 125.62 393.45 125.66 392.38 125.70 391.31 C 118.95 391.23 112.20 391.20 105.45 391.35 M 190.50 407.12 C 191.96 412.16 194.64 417.32 199.98 419.08 C 205.19 420.39 211.55 420.57 215.86 416.81 C 217.68 415.94 215.79 412.70 214.03 413.53 C 211.52 414.85 208.99 416.59 206.01 416.40 C 200.03 416.60 194.27 411.18 195.27 404.99 C 194.66 400.30 198.38 397.01 201.95 394.76 C 204.39 394.71 206.81 394.39 209.26 394.39 C 210.94 395.54 212.67 396.64 214.39 397.74 C 215.42 396.64 216.29 395.40 216.85 394.00 C 211.75 390.77 205.66 390.80 199.89 391.56 C 193.84 394.27 190.45 400.61 190.50 407.12 M 263.57 391.32 C 263.57 400.79 263.55 410.27 263.59 419.75 C 264.92 419.72 266.25 419.70 267.59 419.68 C 267.57 416.91 267.56 414.15 267.51 411.38 C 270.06 411.08 272.60 410.76 275.16 410.57 C 275.65 410.87 276.64 411.47 277.13 411.77 C 279.15 414.10 280.61 416.83 282.19 419.47 C 283.85 419.52 285.51 419.57 287.18 419.63 C 284.98 416.55 282.66 413.53 280.97 410.13 C 284.29 408.33 287.23 405.07 286.64 401.01 C 287.08 396.65 283.79 393.38 280.18 391.61 C 274.65 391.26 269.11 391.24 263.57 391.32 M 364.60 391.38 C 364.73 400.46 364.43 409.54 364.75 418.61 L 364.47 419.66 C 370.60 419.77 376.76 420.03 382.88 419.44 C 386.15 418.55 389.91 415.79 389.44 411.97 C 389.97 408.72 387.15 406.62 384.91 404.88 C 385.63 403.78 386.45 402.75 387.37 401.81 C 387.57 399.74 387.64 397.66 387.72 395.59 C 386.03 394.03 384.46 391.92 382.01 391.64 C 376.70 390.94 371.32 391.36 365.99 391.29 L 364.60 391.38 M 438.71 391.40 C 439.16 400.86 437.90 410.45 439.41 419.82 L 439.40 419.96 C 440.66 419.79 441.94 419.64 443.21 419.50 C 443.19 416.74 443.18 413.98 443.17 411.23 C 446.21 411.23 449.25 411.25 452.30 411.30 C 454.19 414.04 456.05 416.79 457.88 419.58 C 459.33 419.63 460.77 419.67 462.23 419.72 C 460.65 416.73 458.80 413.88 456.55 411.35 C 456.53 411.03 456.48 410.39 456.46 410.07 C 459.91 407.95 463.08 404.28 462.06 399.93 C 461.77 395.33 457.54 391.45 452.96 391.46 C 448.64 391.14 444.30 391.30 439.97 391.30 L 438.71 391.40 Z" />
</g>
<g id="#e5ba26ff">
<path fill="#e5ba26" opacity="1.00" d=" M 48.52 194.51 C 229.51 194.48 410.51 194.49 591.50 194.51 C 591.36 249.54 591.44 304.56 591.45 359.58 C 580.37 359.77 569.29 359.57 558.21 359.70 C 558.04 387.29 558.46 414.90 558.01 442.49 C 556.19 434.78 557.02 426.85 556.91 419.02 C 556.97 399.28 556.84 379.55 557.04 359.82 C 556.38 359.88 555.07 360.02 554.42 360.08 C 554.71 384.37 554.31 408.66 554.64 432.94 C 554.63 435.80 554.14 438.64 553.65 441.45 L 553.56 440.16 C 553.19 413.34 553.51 386.51 553.41 359.69 L 552.10 359.69 C 431.42 359.61 310.74 359.68 190.05 359.65 C 155.15 359.54 120.25 359.88 85.35 359.49 L 84.05 359.44 C 90.24 357.60 96.71 358.31 103.06 358.31 C 247.38 358.23 391.69 358.37 536.00 358.28 C 544.01 358.44 552.02 358.40 560.01 357.88 C 569.93 357.79 579.86 357.93 589.77 357.60 C 589.21 303.92 589.79 250.22 589.49 196.53 C 431.68 196.40 273.87 196.51 116.06 196.48 C 94.20 196.59 72.35 196.28 50.50 196.57 C 50.46 230.05 50.54 263.53 50.45 297.00 C 50.41 317.21 50.67 337.42 50.27 357.63 C 57.19 357.70 64.10 358.02 71.02 357.69 C 73.89 357.65 76.89 357.27 79.63 358.37 C 81.12 360.21 81.11 362.70 81.21 364.95 C 80.77 388.30 81.17 411.66 81.04 435.02 C 80.77 438.54 80.14 442.03 79.54 445.51 C 79.19 416.91 79.48 388.30 79.39 359.69 C 69.11 359.58 58.82 359.75 48.54 359.59 C 48.57 304.57 48.63 249.54 48.52 194.51 Z" />
<path fill="#e5ba26" opacity="1.00" d=" M 110.40 240.21 C 111.55 240.24 112.71 240.26 113.86 240.29 C 113.36 241.22 112.86 242.16 112.37 243.10 C 115.87 242.45 119.50 241.93 123.03 242.70 C 129.50 243.67 136.68 240.86 142.65 244.39 C 141.48 244.44 139.15 244.53 137.99 244.58 C 129.62 244.51 121.25 244.56 112.88 244.55 C 112.44 244.55 111.55 244.55 111.10 244.55 C 97.88 244.43 84.66 244.76 71.45 244.39 C 70.81 244.29 69.53 244.09 68.89 243.99 C 72.07 242.62 75.56 242.98 78.93 242.95 C 89.44 242.70 99.96 242.66 110.48 242.91 C 110.45 242.01 110.43 241.11 110.40 240.21 Z" />
<path fill="#e5ba26" opacity="1.00" d=" M 460.83 240.06 C 462.00 241.58 463.17 243.10 464.35 244.62 C 458.45 244.52 452.55 244.54 446.65 244.57 C 446.62 266.61 446.73 288.66 446.62 310.70 C 452.58 311.35 458.58 311.26 464.55 310.76 C 464.25 311.20 463.63 312.08 463.33 312.52 C 457.63 313.84 451.62 313.15 445.90 312.18 C 444.76 293.47 445.93 274.71 445.34 255.98 C 445.18 251.53 445.62 247.09 446.43 242.72 C 450.80 242.87 455.17 242.87 459.54 242.86 C 459.86 242.16 460.51 240.76 460.83 240.06 Z" />
<path fill="#e5ba26" opacity="1.00" d=" M 158.62 243.47 C 163.30 242.29 168.21 242.71 173.00 242.83 C 175.39 242.76 178.53 244.11 178.43 246.92 C 178.50 254.29 177.27 261.63 177.72 269.01 C 178.15 275.97 176.62 283.19 178.96 289.92 C 180.25 292.65 178.00 295.19 176.78 297.48 C 176.17 294.69 175.51 291.88 175.56 289.00 C 175.63 274.19 175.59 259.38 175.60 244.57 C 169.92 244.54 164.23 244.54 158.55 244.55 L 158.62 243.47 Z" />
<path fill="#e5ba26" opacity="1.00" d=" M 361.83 243.48 C 369.39 243.31 377.26 241.46 384.62 243.84 C 377.04 244.11 369.39 244.87 361.83 243.48 Z" />
</g>
<g id="#f2bc00ff">
<path fill="#f2bc00" opacity="1.00" d=" M 50.50 196.57 C 72.35 196.28 94.20 196.59 116.06 196.48 C 273.87 196.51 431.68 196.40 589.49 196.53 C 589.79 250.22 589.21 303.92 589.77 357.60 C 579.86 357.93 569.93 357.79 560.01 357.88 C 552.02 358.40 544.01 358.44 536.00 358.28 C 391.69 358.37 247.38 358.23 103.06 358.31 C 96.71 358.31 90.24 357.60 84.05 359.44 C 83.98 359.73 83.86 360.29 83.80 360.57 C 83.00 363.99 82.31 367.46 82.35 370.98 C 82.32 383.66 82.36 396.33 82.37 409.00 C 82.45 417.20 81.90 425.43 82.93 433.59 C 82.29 434.06 81.66 434.53 81.04 435.02 C 81.17 411.66 80.77 388.30 81.21 364.95 C 81.11 362.70 81.12 360.21 79.63 358.37 C 76.89 357.27 73.89 357.65 71.02 357.69 C 64.10 358.02 57.19 357.70 50.27 357.63 C 50.67 337.42 50.41 317.21 50.45 297.00 C 50.54 263.53 50.46 230.05 50.50 196.57 M 110.40 240.21 C 110.43 241.11 110.45 242.01 110.48 242.91 C 99.96 242.66 89.44 242.70 78.93 242.95 C 75.56 242.98 72.07 242.62 68.89 243.99 C 69.53 244.09 70.81 244.29 71.45 244.39 C 71.28 249.42 71.31 254.45 71.43 259.48 C 75.13 259.47 78.82 259.46 82.52 259.47 C 82.47 276.56 82.62 293.64 82.45 310.72 C 88.17 311.52 93.95 311.11 99.70 311.26 L 99.70 311.23 C 102.78 310.81 104.68 307.37 103.36 304.57 C 100.95 298.28 102.11 291.50 102.64 284.99 C 103.06 280.31 102.40 275.49 103.83 270.94 C 104.68 267.47 107.25 264.87 108.92 261.81 C 109.77 261.37 110.60 260.91 111.41 260.42 L 111.59 259.95 C 112.30 277.11 111.32 294.32 112.45 311.48 C 119.83 314.68 128.54 310.25 135.74 314.45 C 135.86 313.04 135.97 311.63 136.08 310.23 C 136.76 311.05 137.35 311.96 138.17 312.66 C 141.83 313.42 145.60 313.26 149.33 313.43 C 150.10 314.63 150.89 315.83 151.68 317.03 C 151.66 315.71 151.65 314.39 151.63 313.08 C 153.66 313.83 155.81 315.09 158.02 314.21 C 160.95 313.50 162.20 310.42 163.91 308.26 C 166.42 310.24 169.58 311.15 172.72 311.42 C 179.73 311.88 186.97 312.04 193.63 309.43 C 195.49 307.61 197.07 305.55 198.53 303.40 C 198.60 302.97 198.74 302.11 198.81 301.69 C 198.89 302.39 199.05 303.80 199.13 304.51 C 201.12 301.39 201.98 297.76 202.31 294.12 C 202.84 295.53 203.37 296.93 203.88 298.36 C 203.71 294.83 204.25 291.28 204.31 287.75 C 205.18 290.77 204.72 293.96 204.87 297.07 C 205.32 298.36 205.79 299.66 206.30 300.94 C 206.38 301.51 206.55 302.65 206.63 303.22 C 209.10 306.55 211.98 309.86 216.15 311.01 L 213.99 310.78 C 214.51 311.16 215.54 311.90 216.06 312.27 C 223.08 313.67 230.28 312.45 237.36 312.14 C 237.59 312.68 238.03 313.76 238.26 314.29 C 245.19 312.00 252.66 313.66 259.81 312.62 C 260.37 309.57 260.55 306.47 260.77 303.38 C 261.03 300.18 262.99 297.17 262.21 293.92 C 262.36 294.46 262.65 295.55 262.79 296.09 C 263.96 299.70 264.99 303.36 266.21 306.95 C 266.39 308.16 266.57 309.37 266.75 310.59 L 267.52 310.62 L 267.28 311.56 C 271.84 311.94 276.42 312.50 280.99 312.07 C 288.56 311.12 296.20 313.33 303.71 311.55 C 306.05 313.82 308.54 316.76 312.20 315.76 C 310.71 314.68 309.22 313.61 307.71 312.58 C 313.48 312.90 319.30 313.72 325.06 312.98 C 327.29 312.74 326.78 309.78 327.50 308.24 C 327.87 309.63 328.21 311.03 328.65 312.41 C 329.69 312.40 330.72 312.36 331.77 312.40 C 342.51 312.19 353.26 312.35 364.01 312.37 C 365.41 312.52 366.44 311.96 367.10 310.68 L 367.26 310.67 C 367.30 306.94 367.22 303.12 368.52 299.55 C 372.42 299.61 376.32 299.63 380.22 299.61 C 380.77 303.30 381.32 306.99 381.65 310.72 C 387.32 311.12 393.02 311.28 398.70 311.05 C 394.02 312.25 388.22 311.98 383.13 311.82 C 385.65 313.87 389.03 313.24 392.03 313.26 C 397.67 312.92 403.32 313.41 408.96 313.25 C 413.67 313.18 418.63 311.61 423.06 313.95 C 423.52 313.21 423.98 312.47 424.44 311.73 C 426.79 312.05 429.12 312.51 431.50 312.64 C 436.25 313.85 441.14 313.43 445.98 313.32 L 445.90 312.18 C 451.62 313.15 457.63 313.84 463.33 312.52 C 463.63 312.08 464.25 311.20 464.55 310.76 C 464.15 303.16 464.49 295.54 464.30 287.94 C 464.44 286.95 463.82 285.47 465.04 284.99 L 465.55 286.03 L 465.17 285.93 C 464.09 290.92 465.08 295.99 464.97 301.02 C 465.07 303.88 464.38 306.90 465.66 309.60 C 466.68 303.45 465.24 297.04 467.39 291.06 C 467.84 292.74 468.34 294.40 468.79 296.08 C 470.33 300.93 472.02 305.75 472.92 310.77 L 474.14 310.77 L 472.70 311.29 C 481.75 313.13 490.92 311.25 500.02 312.25 C 507.00 312.40 513.98 312.14 520.96 312.32 C 522.96 312.17 525.53 312.82 526.89 310.88 C 526.45 306.13 526.73 301.36 526.60 296.60 C 521.27 296.70 515.94 296.67 510.62 296.65 C 510.55 292.85 510.54 289.06 510.59 285.27 C 515.14 284.80 520.21 286.31 524.46 284.44 C 525.07 279.63 524.65 274.77 524.55 269.94 C 526.38 269.78 528.20 269.45 530.01 269.10 C 525.52 267.94 520.96 269.37 516.42 269.21 C 517.52 268.24 518.64 267.29 519.77 266.35 C 518.11 266.44 516.46 266.54 514.82 266.63 C 514.58 267.36 514.09 268.82 513.84 269.55 C 511.16 267.41 512.53 263.57 512.16 260.63 C 514.12 260.76 516.10 260.98 518.07 260.83 C 523.77 260.23 529.48 261.27 535.19 260.66 C 533.93 263.42 530.59 263.06 528.13 263.65 C 531.25 263.50 534.38 263.49 537.51 263.53 C 537.86 279.11 537.58 294.69 537.67 310.28 C 538.11 310.42 538.98 310.72 539.42 310.87 C 545.03 313.55 551.61 312.07 557.59 311.77 C 558.12 308.55 558.55 305.30 558.44 302.03 C 558.26 288.33 558.58 274.61 558.23 260.93 C 557.87 260.52 557.14 259.70 556.78 259.29 C 560.64 259.58 564.52 259.45 568.39 259.47 C 568.49 254.45 568.40 249.43 568.51 244.42 C 564.54 242.78 560.17 243.39 556.00 243.29 C 541.33 243.16 526.67 243.48 512.00 243.26 C 503.39 243.10 494.77 243.74 486.18 243.01 C 481.99 242.73 477.83 243.38 473.70 243.95 C 472.39 245.79 471.93 248.05 471.22 250.16 C 469.64 255.57 467.11 260.75 466.66 266.44 C 466.07 267.76 465.40 269.04 464.78 270.35 C 463.88 261.81 464.61 253.19 464.35 244.62 C 463.17 243.10 462.00 241.58 460.83 240.06 C 460.51 240.76 459.86 242.16 459.54 242.86 C 455.17 242.87 450.80 242.87 446.43 242.72 C 446.57 241.94 446.84 240.38 446.97 239.60 C 444.95 240.55 443.79 242.43 442.80 244.33 C 439.74 244.70 437.86 242.71 436.51 240.25 C 435.85 241.32 435.19 242.39 434.53 243.46 C 433.66 243.57 431.92 243.79 431.06 243.89 L 432.49 243.24 C 425.73 242.15 418.87 242.96 412.06 242.71 C 407.97 242.85 403.65 242.20 399.75 243.69 C 398.17 252.02 399.36 260.56 399.12 268.98 C 398.86 277.00 398.96 285.03 398.76 293.05 C 398.81 295.44 398.04 297.71 397.34 299.97 C 394.66 287.00 392.62 273.92 390.12 260.92 C 389.23 255.46 387.91 250.08 387.25 244.58 C 383.15 244.13 379.07 245.32 374.98 244.79 C 370.57 244.25 366.12 244.65 361.69 244.56 C 361.22 247.73 360.56 250.87 359.99 254.02 C 359.60 256.00 359.27 258.00 358.89 259.98 C 358.63 261.32 358.38 262.66 358.15 264.01 C 357.96 265.22 357.77 266.44 357.58 267.65 C 355.41 267.25 355.10 270.98 356.81 271.78 C 355.56 277.11 354.82 282.54 353.80 287.91 C 353.29 290.86 352.60 293.78 352.22 296.76 C 350.80 294.06 349.99 291.11 350.17 288.05 C 350.24 274.35 350.26 260.64 350.13 246.94 C 350.07 245.50 350.56 244.14 350.99 242.79 C 344.80 244.59 338.28 243.46 331.95 243.81 C 329.08 243.56 325.46 244.60 323.46 241.88 C 322.32 242.26 321.18 242.68 319.96 242.55 C 320.85 243.45 321.73 244.36 322.57 245.31 C 321.75 249.12 321.14 253.04 321.91 256.92 C 321.35 263.11 320.20 269.24 319.75 275.44 C 318.94 275.46 318.14 275.49 317.35 275.52 C 316.52 267.36 315.25 259.25 314.24 251.11 C 313.74 248.82 314.40 245.75 312.18 244.24 C 303.88 244.87 295.54 244.37 287.23 244.50 C 286.70 244.41 285.63 244.22 285.09 244.13 C 279.42 244.22 273.73 243.70 268.09 244.26 C 265.53 245.10 266.32 248.60 265.69 250.64 C 264.80 253.09 264.00 255.58 263.28 258.09 C 262.92 259.10 262.55 260.10 262.17 261.10 C 261.22 264.27 260.12 267.37 258.86 270.43 C 257.32 261.86 259.34 253.03 257.64 244.48 C 251.97 244.57 246.30 244.65 240.64 244.44 C 246.54 244.29 252.53 245.01 258.32 243.51 C 252.84 242.26 247.20 242.80 241.64 242.93 C 241.58 241.90 241.52 240.88 241.46 239.85 C 239.58 241.41 237.72 242.99 235.91 244.63 C 228.97 244.28 222.00 243.90 215.09 244.81 C 212.26 246.37 209.78 248.45 207.64 250.86 C 207.42 251.41 206.99 252.49 206.77 253.03 C 206.80 252.14 206.85 250.37 206.88 249.48 C 205.85 251.84 204.28 253.91 203.35 256.32 C 203.44 254.41 203.52 252.51 203.44 250.60 C 203.46 248.21 201.53 246.46 200.33 244.59 C 194.55 244.53 188.76 244.51 182.98 244.51 C 182.17 261.68 183.18 278.90 182.44 296.09 C 181.91 296.41 180.86 297.05 180.33 297.37 C 179.45 297.40 177.67 297.46 176.78 297.48 C 178.00 295.19 180.25 292.65 178.96 289.92 C 176.62 283.19 178.15 275.97 177.72 269.01 C 177.27 261.63 178.50 254.29 178.43 246.92 C 178.53 244.11 175.39 242.76 173.00 242.83 C 168.21 242.71 163.30 242.29 158.62 243.47 C 157.15 243.74 155.68 244.00 154.21 244.27 C 153.85 246.75 153.35 249.24 153.35 251.76 C 151.02 247.94 147.10 245.07 142.65 244.39 C 136.68 240.86 129.50 243.67 123.03 242.70 C 119.50 241.93 115.87 242.45 112.37 243.10 C 112.86 242.16 113.36 241.22 113.86 240.29 C 112.71 240.26 111.55 240.24 110.40 240.21 M 361.83 243.48 C 369.39 244.87 377.04 244.11 384.62 243.84 C 377.26 241.46 369.39 243.31 361.83 243.48 Z" />
<path fill="#f2bc00" opacity="1.00" d=" M 221.46 273.02 C 221.61 268.40 220.75 263.37 223.37 259.25 C 228.57 259.44 233.76 259.95 238.78 261.35 C 238.89 272.55 239.24 283.76 238.77 294.96 C 233.47 295.42 228.17 295.86 222.87 296.31 L 222.63 296.29 C 220.82 288.66 221.64 280.79 221.46 273.02 Z" />
</g>
<g id="#e4b21bff">
<path fill="#e4b21b" opacity="1.00" d=" M 235.91 244.63 C 237.72 242.99 239.58 241.41 241.46 239.85 C 241.52 240.88 241.58 241.90 241.64 242.93 C 247.20 242.80 252.84 242.26 258.32 243.51 C 252.53 245.01 246.54 244.29 240.64 244.44 C 239.73 259.93 240.42 275.44 240.19 290.93 C 240.08 297.77 240.21 304.61 240.52 311.44 C 246.18 311.72 251.86 311.75 257.48 310.91 L 257.76 310.90 C 257.55 302.03 257.91 293.16 258.67 284.33 C 260.04 287.45 261.43 290.58 262.21 293.92 C 262.99 297.17 261.03 300.18 260.77 303.38 C 260.55 306.47 260.37 309.57 259.81 312.62 C 252.66 313.66 245.19 312.00 238.26 314.29 C 238.03 313.76 237.59 312.68 237.36 312.14 C 230.28 312.45 223.08 313.67 216.06 312.27 C 215.54 311.90 214.51 311.16 213.99 310.78 L 216.15 311.01 C 223.22 312.01 230.42 311.71 237.41 310.28 C 237.47 305.96 237.46 301.65 237.48 297.34 C 232.58 297.60 227.62 297.79 222.87 296.31 C 228.17 295.86 233.47 295.42 238.77 294.96 C 239.24 283.76 238.89 272.55 238.78 261.35 C 233.76 259.95 228.57 259.44 223.37 259.25 L 224.40 258.55 C 228.70 258.15 233.03 258.39 237.34 258.45 C 237.34 254.55 237.34 250.66 237.39 246.78 C 237.02 246.24 236.28 245.17 235.91 244.63 Z" />
</g>
<g id="#f3bb0cff">
<path fill="#f3bb0c" opacity="1.00" d=" M 436.51 240.25 C 437.86 242.71 439.74 244.70 442.80 244.33 C 443.79 242.43 444.95 240.55 446.97 239.60 C 446.84 240.38 446.57 241.94 446.43 242.72 C 445.62 247.09 445.18 251.53 445.34 255.98 C 445.93 274.71 444.76 293.47 445.90 312.18 L 445.98 313.32 C 441.14 313.43 436.25 313.85 431.50 312.64 C 435.68 312.62 439.86 312.32 444.04 312.17 L 443.84 311.18 C 442.33 302.63 438.61 294.66 437.16 286.10 C 439.46 283.47 441.11 280.34 441.82 276.92 C 442.22 275.43 442.65 273.96 443.01 272.47 C 444.59 268.13 444.43 263.53 442.85 259.23 C 442.05 255.89 441.62 252.24 439.41 249.46 C 437.21 246.85 433.97 245.51 431.06 243.89 C 431.92 243.79 433.66 243.57 434.53 243.46 C 435.19 242.39 435.85 241.32 436.51 240.25 Z" />
</g>
<g id="#b38920ff">
<path fill="#b38920" opacity="1.00" d=" M 319.96 242.55 C 321.18 242.68 322.32 242.26 323.46 241.88 C 325.46 244.60 329.08 243.56 331.95 243.81 C 338.28 243.46 344.80 244.59 350.99 242.79 C 350.56 244.14 350.07 245.50 350.13 246.94 C 350.26 260.64 350.24 274.35 350.17 288.05 C 349.99 291.11 350.80 294.06 352.22 296.76 C 351.86 299.25 351.48 301.74 351.12 304.23 C 351.05 303.56 350.97 302.89 350.91 302.22 C 350.69 305.08 350.44 307.94 350.21 310.81 C 355.47 310.82 360.73 310.87 365.99 310.72 C 360.19 311.13 354.38 311.20 348.57 310.93 C 348.48 288.87 348.66 266.81 348.43 244.75 C 340.19 244.87 331.94 244.37 323.73 245.10 C 323.34 249.07 322.71 253.01 321.91 256.92 C 321.14 253.04 321.75 249.12 322.57 245.31 C 321.73 244.36 320.85 243.45 319.96 242.55 Z" />
</g>
<g id="#d4a61cff">
<path fill="#d4a61c" opacity="1.00" d=" M 473.70 243.95 C 477.83 243.38 481.99 242.73 486.18 243.01 C 494.77 243.74 503.39 243.10 512.00 243.26 C 526.67 243.48 541.33 243.16 556.00 243.29 C 560.17 243.39 564.54 242.78 568.51 244.42 C 555.15 244.85 541.76 244.47 528.39 244.62 C 528.33 249.54 528.32 254.46 528.41 259.38 C 532.13 259.38 535.85 259.38 539.57 259.40 C 539.52 276.56 539.82 293.72 539.42 310.87 C 538.98 310.72 538.11 310.42 537.67 310.28 C 537.58 294.69 537.86 279.11 537.51 263.53 C 534.38 263.49 531.25 263.50 528.13 263.65 C 530.59 263.06 533.93 263.42 535.19 260.66 C 529.48 261.27 523.77 260.23 518.07 260.83 C 516.10 260.98 514.12 260.76 512.16 260.63 C 512.53 263.57 511.16 267.41 513.84 269.55 C 514.09 268.82 514.58 267.36 514.82 266.63 C 516.46 266.54 518.11 266.44 519.77 266.35 C 518.64 267.29 517.52 268.24 516.42 269.21 C 520.96 269.37 525.52 267.94 530.01 269.10 C 528.20 269.45 526.38 269.78 524.55 269.94 C 519.88 270.20 515.19 270.00 510.52 270.02 C 510.47 266.47 510.45 262.91 510.41 259.36 C 516.19 258.84 522.00 258.78 527.80 258.75 C 527.84 254.02 527.83 249.29 527.77 244.57 C 516.13 244.11 504.48 244.36 492.84 244.39 L 491.99 244.41 C 485.88 244.49 479.79 244.21 473.70 243.95 Z" />
</g>
<g id="#e9b726ff">
<path fill="#e9b726" opacity="1.00" d=" M 399.75 243.69 C 403.65 242.20 407.97 242.85 412.06 242.71 C 418.87 242.96 425.73 242.15 432.49 243.24 L 431.06 243.89 C 430.30 244.23 429.54 244.53 428.77 244.79 C 419.36 244.17 409.93 244.50 400.51 244.47 C 399.95 257.95 400.42 271.44 400.20 284.93 C 400.01 292.42 400.81 299.97 399.53 307.40 C 399.03 306.27 398.56 305.12 398.11 303.98 C 397.83 302.64 397.58 301.30 397.34 299.97 C 398.04 297.71 398.81 295.44 398.76 293.05 C 398.96 285.03 398.86 277.00 399.12 268.98 C 399.36 260.56 398.17 252.02 399.75 243.69 Z" />
</g>
<g id="#8a6f0eff">
<path fill="#8a6f0e" opacity="1.00" d=" M 137.99 244.58 C 139.15 244.53 141.48 244.44 142.65 244.39 C 147.10 245.07 151.02 247.94 153.35 251.76 C 154.97 259.76 156.34 268.22 153.98 276.23 C 153.23 268.00 155.25 259.14 151.50 251.44 C 148.94 246.43 142.92 245.64 137.99 244.58 Z" />
</g>
<g id="#efba12ff">
<path fill="#efba12" opacity="1.00" d=" M 154.21 244.27 C 155.68 244.00 157.15 243.74 158.62 243.47 L 158.55 244.55 C 158.45 260.02 158.51 275.50 158.56 290.97 C 158.63 297.03 159.20 303.87 163.91 308.26 C 162.20 310.42 160.95 313.50 158.02 314.21 C 155.81 315.09 153.66 313.83 151.63 313.08 C 151.65 314.39 151.66 315.71 151.68 317.03 C 150.89 315.83 150.10 314.63 149.33 313.43 C 145.60 313.26 141.83 313.42 138.17 312.66 C 137.35 311.96 136.76 311.05 136.08 310.23 C 135.97 311.63 135.86 313.04 135.74 314.45 C 128.54 310.25 119.83 314.68 112.45 311.48 C 118.41 311.00 124.42 311.41 130.37 310.65 C 130.32 303.33 130.11 296.01 130.47 288.70 C 131.10 289.04 132.36 289.72 132.99 290.06 C 135.29 296.73 136.49 303.75 138.00 310.63 C 143.95 311.40 149.97 311.39 155.94 310.82 C 155.06 307.53 154.07 304.27 153.19 300.98 C 151.59 296.09 150.11 291.16 149.13 286.11 C 151.55 283.28 153.32 279.92 153.98 276.23 C 156.34 268.22 154.97 259.76 153.35 251.76 C 153.35 249.24 153.85 246.75 154.21 244.27 Z" />
</g>
<g id="#10100fff">
<path fill="#10100f" opacity="1.00" d=" M 182.98 244.51 C 188.76 244.51 194.55 244.53 200.33 244.59 C 199.95 263.61 201.29 282.76 198.81 301.69 C 198.74 302.11 198.60 302.97 198.53 303.40 C 197.07 305.55 195.49 307.61 193.63 309.43 C 186.97 312.04 179.73 311.88 172.72 311.42 C 169.58 311.15 166.42 310.24 163.91 308.26 C 159.20 303.87 158.63 297.03 158.56 290.97 C 158.51 275.50 158.45 260.02 158.55 244.55 C 164.23 244.54 169.92 244.54 175.60 244.57 C 175.59 259.38 175.63 274.19 175.56 289.00 C 175.51 291.88 176.17 294.69 176.78 297.48 C 177.67 297.46 179.45 297.40 180.33 297.37 C 180.86 297.05 181.91 296.41 182.44 296.09 C 183.18 278.90 182.17 261.68 182.98 244.51 Z" />
<path fill="#10100f" opacity="1.00" d=" M 215.09 244.81 C 222.00 243.90 228.97 244.28 235.91 244.63 C 236.28 245.17 237.02 246.24 237.39 246.78 C 237.34 250.66 237.34 254.55 237.34 258.45 C 233.03 258.39 228.70 258.15 224.40 258.55 L 223.37 259.25 C 220.75 263.37 221.61 268.40 221.46 273.02 C 221.64 280.79 220.82 288.66 222.63 296.29 L 222.87 296.31 C 227.62 297.79 232.58 297.60 237.48 297.34 C 237.46 301.65 237.47 305.96 237.41 310.28 C 230.42 311.71 223.22 312.01 216.15 311.01 C 211.98 309.86 209.10 306.55 206.63 303.22 C 206.55 302.65 206.38 301.51 206.30 300.94 C 205.79 299.66 205.32 298.36 204.87 297.07 C 204.72 293.96 205.18 290.77 204.31 287.75 C 203.75 282.85 203.46 277.92 203.79 273.00 C 204.45 266.31 204.25 259.39 206.77 253.03 C 206.99 252.49 207.42 251.41 207.64 250.86 C 209.78 248.45 212.26 246.37 215.09 244.81 Z" />
<path fill="#10100f" opacity="1.00" d=" M 359.99 254.02 C 360.56 250.87 361.22 247.73 361.69 244.56 C 366.12 244.65 370.57 244.25 374.98 244.79 C 379.07 245.32 383.15 244.13 387.25 244.58 C 387.91 250.08 389.23 255.46 390.12 260.92 C 392.62 273.92 394.66 287.00 397.34 299.97 C 397.58 301.30 397.83 302.64 398.11 303.98 C 398.44 306.32 398.65 308.68 398.70 311.05 C 393.02 311.28 387.32 311.12 381.65 310.72 C 381.32 306.99 380.77 303.30 380.22 299.61 C 376.32 299.63 372.42 299.61 368.52 299.55 C 367.22 303.12 367.30 306.94 367.26 310.67 L 367.10 310.68 L 365.99 310.72 C 360.73 310.87 355.47 310.82 350.21 310.81 C 350.44 307.94 350.69 305.08 350.91 302.22 C 350.97 302.89 351.05 303.56 351.12 304.23 C 351.48 301.74 351.86 299.25 352.22 296.76 C 352.60 293.78 353.29 290.86 353.80 287.91 C 354.82 282.54 355.56 277.11 356.81 271.78 C 357.19 270.43 357.43 269.04 357.58 267.65 C 357.77 266.44 357.96 265.22 358.15 264.01 C 358.38 262.66 358.63 261.32 358.89 259.98 C 359.27 258.00 359.60 256.00 359.99 254.02 M 373.07 266.01 C 372.21 272.55 371.05 279.07 371.12 285.70 C 373.34 285.69 375.56 285.67 377.79 285.66 C 376.93 276.97 375.99 268.24 374.16 259.70 C 374.00 261.82 373.39 263.90 373.07 266.01 Z" />
</g>
<g id="#816713ff">
<path fill="#816713" opacity="1.00" d=" M 265.69 250.64 C 266.32 248.60 265.53 245.10 268.09 244.26 C 273.73 243.70 279.42 244.22 285.09 244.13 C 285.15 244.65 285.28 245.69 285.34 246.20 C 284.14 249.80 282.70 253.30 281.40 256.86 C 280.19 260.12 278.63 263.23 277.05 266.33 C 278.77 258.92 282.33 252.15 284.68 244.95 C 279.22 244.99 273.76 245.11 268.31 245.24 C 267.42 247.03 266.52 248.82 265.69 250.64 Z" />
</g>
<g id="#ac8a34ff">
<path fill="#ac8a34" opacity="1.00" d=" M 285.09 244.13 C 285.63 244.22 286.70 244.41 287.23 244.50 C 286.34 266.58 287.08 288.70 286.86 310.80 C 292.09 310.84 297.32 310.81 302.56 310.77 C 302.83 297.40 302.18 284.01 302.90 270.66 L 303.34 268.72 C 306.06 273.11 304.29 278.25 304.10 283.01 C 303.56 292.51 304.19 302.04 303.71 311.55 C 296.20 313.33 288.56 311.12 280.99 312.07 C 276.42 312.50 271.84 311.94 267.28 311.56 L 267.52 310.62 C 273.30 310.90 279.09 310.82 284.87 310.83 C 284.91 310.54 284.99 309.97 285.03 309.68 C 285.56 306.80 286.10 303.90 286.10 300.96 C 285.98 290.63 286.41 280.31 286.16 269.98 C 285.87 262.06 286.81 254.06 285.34 246.20 C 285.28 245.69 285.15 244.65 285.09 244.13 Z" />
</g>
<g id="#b18f2fff">
<path fill="#b18f2f" opacity="1.00" d=" M 312.18 244.24 C 314.40 245.75 313.74 248.82 314.24 251.11 C 315.25 259.25 316.52 267.36 317.35 275.52 C 318.14 275.49 318.94 275.46 319.75 275.44 C 319.55 279.07 318.88 282.66 318.06 286.20 C 316.14 279.60 316.00 272.69 314.92 265.95 C 314.05 258.71 312.80 251.51 312.18 244.24 Z" />
</g>
<g id="#3d2a06ff">
<path fill="#3d2a06" opacity="1.00" d=" M 400.51 244.47 C 409.93 244.50 419.36 244.17 428.77 244.79 C 428.21 244.93 427.08 245.21 426.51 245.35 C 418.25 245.94 409.97 245.35 401.70 245.64 C 401.22 257.09 401.68 268.55 401.47 280.00 C 401.53 290.06 401.28 300.13 401.77 310.18 C 407.09 310.02 412.41 310.34 417.72 310.65 C 412.12 311.12 406.49 310.91 400.88 311.29 C 400.61 289.02 401.13 266.74 400.51 244.47 Z" />
</g>
<g id="#71580dff">
<path fill="#71580d" opacity="1.00" d=" M 428.77 244.79 C 429.54 244.53 430.30 244.23 431.06 243.89 C 433.97 245.51 437.21 246.85 439.41 249.46 C 441.62 252.24 442.05 255.89 442.85 259.23 C 442.81 263.64 442.97 268.05 443.01 272.47 C 442.65 273.96 442.22 275.43 441.82 276.92 C 441.25 268.99 442.74 260.73 440.11 253.06 C 438.13 247.54 431.94 245.29 426.51 245.35 C 427.08 245.21 428.21 244.93 428.77 244.79 Z" />
</g>
<g id="#866914ff">
<path fill="#866914" opacity="1.00" d=" M 471.22 250.16 C 471.93 248.05 472.39 245.79 473.70 243.95 C 479.79 244.21 485.88 244.49 491.99 244.41 C 491.81 244.97 491.45 246.07 491.28 246.62 C 488.14 255.86 484.16 264.78 480.75 273.91 C 479.42 277.15 481.30 280.42 482.34 283.44 C 484.14 287.60 485.43 291.95 486.56 296.33 C 483.13 289.96 481.19 282.97 478.66 276.22 C 482.64 265.71 487.13 255.40 490.82 244.78 C 485.28 244.71 479.75 244.84 474.22 245.07 C 471.46 252.11 469.83 259.56 466.66 266.44 C 467.11 260.75 469.64 255.57 471.22 250.16 Z" />
</g>
<g id="#624d0dff">
<path fill="#624d0d" opacity="1.00" d=" M 492.84 244.39 C 504.48 244.36 516.13 244.11 527.77 244.57 C 527.83 249.29 527.84 254.02 527.80 258.75 C 522.00 258.78 516.19 258.84 510.41 259.36 C 510.45 262.91 510.47 266.47 510.52 270.02 C 515.19 270.00 519.88 270.20 524.55 269.94 C 524.65 274.77 525.07 279.63 524.46 284.44 C 520.21 286.31 515.14 284.80 510.59 285.27 C 510.54 289.06 510.55 292.85 510.62 296.65 C 510.33 296.65 509.75 296.64 509.45 296.64 C 509.47 292.48 509.46 288.32 509.49 284.17 C 514.22 284.07 518.95 283.75 523.69 283.78 C 523.66 279.61 523.62 275.44 523.55 271.27 C 518.96 271.12 514.18 271.98 509.75 270.50 C 509.13 266.47 509.47 262.37 509.54 258.31 C 515.08 258.20 520.63 258.10 526.17 258.06 C 526.22 253.78 526.09 249.50 525.75 245.24 C 514.96 245.30 504.17 245.24 493.38 245.29 C 493.23 248.58 493.06 251.88 492.97 255.18 C 492.97 251.58 492.89 247.99 492.84 244.39 Z" />
</g>
<g id="#10100eff">
<path fill="#10100e" opacity="1.00" d=" M 71.45 244.39 C 84.66 244.76 97.88 244.43 111.10 244.55 C 110.80 249.07 110.86 253.62 111.42 258.12 C 111.19 258.44 110.73 259.09 110.50 259.41 C 107.00 259.51 103.50 259.45 100.00 259.46 C 99.49 276.71 100.01 293.97 99.70 311.23 L 99.70 311.26 C 93.95 311.11 88.17 311.52 82.45 310.72 C 82.62 293.64 82.47 276.56 82.52 259.47 C 78.82 259.46 75.13 259.47 71.43 259.48 C 71.31 254.45 71.28 249.42 71.45 244.39 Z" />
</g>
<g id="#906e2bff">
<path fill="#906e2b" opacity="1.00" d=" M 111.10 244.55 C 111.55 244.55 112.44 244.55 112.88 244.55 C 113.47 263.03 112.89 281.52 113.18 300.01 C 113.30 303.85 113.01 307.68 112.45 311.48 C 111.32 294.32 112.30 277.11 111.59 259.95 C 111.55 259.49 111.46 258.58 111.42 258.12 C 110.86 253.62 110.80 249.07 111.10 244.55 Z" />
</g>
<g id="#e8b71cff">
<path fill="#e8b71c" opacity="1.00" d=" M 200.33 244.59 C 201.53 246.46 203.46 248.21 203.44 250.60 C 203.52 252.51 203.44 254.41 203.35 256.32 C 204.28 253.91 205.85 251.84 206.88 249.48 C 206.85 250.37 206.80 252.14 206.77 253.03 C 204.25 259.39 204.45 266.31 203.79 273.00 C 203.46 277.92 203.75 282.85 204.31 287.75 C 204.25 291.28 203.71 294.83 203.88 298.36 C 203.37 296.93 202.84 295.53 202.31 294.12 C 201.98 297.76 201.12 301.39 199.13 304.51 C 199.05 303.80 198.89 302.39 198.81 301.69 C 201.29 282.76 199.95 263.61 200.33 244.59 Z" />
</g>
<g id="#a37c2cff">
<path fill="#a37c2c" opacity="1.00" d=" M 240.19 290.93 C 240.42 275.44 239.73 259.93 240.64 244.44 C 240.98 266.55 240.93 288.67 240.68 310.77 C 246.28 310.77 251.88 310.79 257.48 310.91 C 251.86 311.75 246.18 311.72 240.52 311.44 C 240.21 304.61 240.08 297.77 240.19 290.93 Z" />
</g>
<g id="#997527ff">
<path fill="#997527" opacity="1.00" d=" M 400.20 284.93 C 400.42 271.44 399.95 257.95 400.51 244.47 C 401.13 266.74 400.61 289.02 400.88 311.29 C 400.44 311.15 399.54 310.88 399.09 310.75 C 399.22 309.63 399.36 308.51 399.53 307.40 C 400.81 299.97 400.01 292.42 400.20 284.93 Z" />
</g>
<g id="#b49340ff">
<path fill="#b49340" opacity="1.00" d=" M 491.99 244.41 L 492.84 244.39 C 492.89 247.99 492.97 251.58 492.97 255.18 C 492.76 273.39 493.27 291.61 492.84 309.82 L 492.82 310.95 C 503.95 311.00 515.08 311.07 526.21 310.83 L 526.89 310.88 C 525.53 312.82 522.96 312.17 520.96 312.32 C 513.98 312.14 507.00 312.40 500.02 312.25 C 490.92 311.25 481.75 313.13 472.70 311.29 L 474.14 310.77 C 479.93 310.77 485.73 310.95 491.53 310.72 C 491.42 310.29 491.20 309.43 491.09 309.00 C 492.48 298.71 491.63 288.32 491.70 277.98 C 491.48 267.52 492.30 257.05 491.28 246.62 C 491.45 246.07 491.81 244.97 491.99 244.41 Z" />
</g>
<g id="#eab527ff">
<path fill="#eab527" opacity="1.00" d=" M 285.34 246.20 C 286.81 254.06 285.87 262.06 286.16 269.98 C 286.41 280.31 285.98 290.63 286.10 300.96 C 286.10 303.90 285.56 306.80 285.03 309.68 C 284.66 308.27 284.24 306.89 283.79 305.52 C 286.27 296.87 284.72 287.86 284.96 279.03 C 284.65 271.20 285.75 263.33 284.53 255.54 C 283.85 257.03 283.18 258.54 282.53 260.06 C 282.25 259.26 281.68 257.66 281.40 256.86 C 282.70 253.30 284.14 249.80 285.34 246.20 Z" />
</g>
<g id="#f1bc08ff">
<path fill="#f1bc08" opacity="1.00" d=" M 491.28 246.62 C 492.30 257.05 491.48 267.52 491.70 277.98 C 491.63 288.32 492.48 298.71 491.09 309.00 C 489.66 304.75 488.07 300.55 486.56 296.33 C 485.43 291.95 484.14 287.60 482.34 283.44 C 481.30 280.42 479.42 277.15 480.75 273.91 C 484.16 264.78 488.14 255.86 491.28 246.62 Z" />
</g>
<g id="#f0bd08ff">
<path fill="#f0bd08" opacity="1.00" d=" M 282.53 260.06 C 283.18 258.54 283.85 257.03 284.53 255.54 C 285.75 263.33 284.65 271.20 284.96 279.03 C 284.72 287.86 286.27 296.87 283.79 305.52 C 281.20 298.69 278.73 291.81 276.27 284.94 C 275.30 282.00 273.74 279.17 273.53 276.04 C 274.11 272.63 275.80 269.53 277.05 266.33 C 278.63 263.23 280.19 260.12 281.40 256.86 C 281.68 257.66 282.25 259.26 282.53 260.06 Z" />
</g>
<g id="#eeb60dff">
<path fill="#eeb60d" opacity="1.00" d=" M 111.42 258.12 C 111.46 258.58 111.55 259.49 111.59 259.95 L 111.41 260.42 C 110.60 260.91 109.77 261.37 108.92 261.81 C 107.25 264.87 104.68 267.47 103.83 270.94 C 102.40 275.49 103.06 280.31 102.64 284.99 C 102.11 291.50 100.95 298.28 103.36 304.57 C 104.68 307.37 102.78 310.81 99.70 311.23 C 100.01 293.97 99.49 276.71 100.00 259.46 C 103.50 259.45 107.00 259.51 110.50 259.41 C 110.73 259.09 111.19 258.44 111.42 258.12 Z" />
</g>
<g id="#efbb12ff">
<path fill="#efbb12" opacity="1.00" d=" M 130.37 275.60 C 130.26 269.84 130.24 264.07 130.44 258.31 C 132.48 258.61 134.51 259.02 136.53 259.48 C 137.03 264.38 137.98 269.50 136.32 274.29 C 135.07 276.27 132.29 275.12 130.37 275.60 Z" />
</g>
<g id="#efbb10ff">
<path fill="#efbb10" opacity="1.00" d=" M 417.60 267.00 C 418.78 264.34 418.26 261.36 418.40 258.55 C 420.14 258.59 421.89 258.64 423.64 258.68 C 423.66 258.86 423.68 259.22 423.69 259.40 C 424.11 264.64 424.08 269.91 423.82 275.17 L 423.81 275.42 C 421.99 275.45 420.16 275.48 418.35 275.52 C 418.25 272.68 418.74 269.69 417.60 267.00 Z" />
</g>
<g id="#b59739ff">
<path fill="#b59739" opacity="1.00" d=" M 423.69 259.40 C 425.59 261.07 425.19 263.72 425.32 265.98 C 425.31 269.09 425.59 272.42 423.82 275.17 C 424.08 269.91 424.11 264.64 423.69 259.40 Z" />
</g>
<g id="#dfb236ff">
<path fill="#dfb236" opacity="1.00" d=" M 442.85 259.23 C 444.43 263.53 444.59 268.13 443.01 272.47 C 442.97 268.05 442.81 263.64 442.85 259.23 Z" />
</g>
<g id="#c59d33ff">
<path fill="#c59d33" opacity="1.00" d=" M 556.78 259.29 C 557.14 259.70 557.87 260.52 558.23 260.93 C 558.58 274.61 558.26 288.33 558.44 302.03 C 558.55 305.30 558.12 308.55 557.59 311.77 C 551.61 312.07 545.03 313.55 539.42 310.87 C 545.17 310.75 550.93 310.89 556.68 310.79 C 556.73 293.62 556.53 276.45 556.78 259.29 Z" />
</g>
<g id="#f4bb08ff">
<path fill="#f4bb08" opacity="1.00" d=" M 373.07 266.01 C 373.39 263.90 374.00 261.82 374.16 259.70 C 375.99 268.24 376.93 276.97 377.79 285.66 C 375.56 285.67 373.34 285.69 371.12 285.70 C 371.05 279.07 372.21 272.55 373.07 266.01 Z" />
</g>
<g id="#b58f2aff">
<path fill="#b58f2a" opacity="1.00" d=" M 330.82 266.93 C 331.23 266.74 332.05 266.36 332.46 266.17 C 332.64 279.10 332.43 292.04 332.54 304.97 C 332.53 306.90 332.38 308.83 332.04 310.73 L 331.81 311.99 C 330.18 300.74 332.89 289.16 329.64 278.12 C 329.91 274.38 330.40 270.66 330.82 266.93 Z" />
</g>
<g id="#f0bb12ff">
<path fill="#f0bb12" opacity="1.00" d=" M 303.98 265.84 C 305.42 276.08 307.08 286.31 307.87 296.63 C 308.07 294.99 308.25 293.34 308.45 291.70 C 308.08 298.15 309.39 304.50 309.93 310.89 C 314.78 312.48 320.43 313.08 325.22 310.99 C 325.77 305.75 326.47 300.52 326.75 295.26 C 326.92 296.28 327.08 297.30 327.26 298.33 C 327.43 291.53 328.70 284.84 329.64 278.12 C 332.89 289.16 330.18 300.74 331.81 311.99 L 331.77 312.40 C 330.72 312.36 329.69 312.40 328.65 312.41 C 328.21 311.03 327.87 309.63 327.50 308.24 C 326.78 309.78 327.29 312.74 325.06 312.98 C 319.30 313.72 313.48 312.90 307.71 312.58 C 309.22 313.61 310.71 314.68 312.20 315.76 C 308.54 316.76 306.05 313.82 303.71 311.55 C 304.19 302.04 303.56 292.51 304.10 283.01 C 304.29 278.25 306.06 273.11 303.34 268.72 C 303.50 268.00 303.82 266.56 303.98 265.84 Z" />
</g>
<g id="#d09f39ff">
<path fill="#d09f39" opacity="1.00" d=" M 356.81 271.78 C 355.10 270.98 355.41 267.25 357.58 267.65 C 357.43 269.04 357.19 270.43 356.81 271.78 Z" />
</g>
<g id="#dbb22dff">
<path fill="#dbb22d" opacity="1.00" d=" M 465.17 285.93 L 465.55 286.03 C 466.40 287.61 466.93 289.33 467.39 291.06 C 465.24 297.04 466.68 303.45 465.66 309.60 C 464.38 306.90 465.07 303.88 464.97 301.02 C 465.08 295.99 464.09 290.92 465.17 285.93 Z" />
</g>
<g id="#ecba15ff">
<path fill="#ecba15" opacity="1.00" d=" M 418.26 310.27 C 418.85 303.02 417.24 295.75 418.50 288.55 C 419.99 289.31 421.67 290.14 421.76 292.06 C 423.31 298.20 424.84 304.36 425.96 310.60 C 431.89 311.43 437.87 311.19 443.84 311.18 L 444.04 312.17 C 439.86 312.32 435.68 312.62 431.50 312.64 C 429.12 312.51 426.79 312.05 424.44 311.73 C 423.98 312.47 423.52 313.21 423.06 313.95 C 418.63 311.61 413.67 313.18 408.96 313.25 C 403.32 313.41 397.67 312.92 392.03 313.26 C 389.03 313.24 385.65 313.87 383.13 311.82 C 388.22 311.98 394.02 312.25 398.70 311.05 C 398.65 308.68 398.44 306.32 398.11 303.98 C 398.56 305.12 399.03 306.27 399.53 307.40 C 399.36 308.51 399.22 309.63 399.09 310.75 C 399.54 310.88 400.44 311.15 400.88 311.29 C 405.55 312.38 410.38 312.30 415.14 312.46 C 415.79 312.01 417.08 311.10 417.72 310.65 C 417.86 310.55 418.12 310.36 418.26 310.27 Z" />
</g>
<g id="#372401ff">
<path fill="#372401" opacity="1.00" d=" M 492.84 309.82 C 503.95 310.74 515.14 309.25 526.21 310.83 C 515.08 311.07 503.95 311.00 492.82 310.95 L 492.84 309.82 Z" />
</g>
<g id="#c89b3dff">
<path fill="#c89b3d" opacity="1.00" d=" M 309.93 310.89 C 315.02 310.77 320.12 310.75 325.22 310.99 C 320.43 313.08 314.78 312.48 309.93 310.89 Z" />
</g>
<g id="#c49e43ff">
<path fill="#c49e43" opacity="1.00" d=" M 331.81 311.99 L 332.04 310.73 C 337.55 310.81 343.06 310.82 348.57 310.93 C 354.38 311.20 360.19 311.13 365.99 310.72 L 367.10 310.68 C 366.44 311.96 365.41 312.52 364.01 312.37 C 353.26 312.35 342.51 312.19 331.77 312.40 L 331.81 311.99 Z" />
</g>
<g id="#c39c46ff">
<path fill="#c39c46" opacity="1.00" d=" M 400.88 311.29 C 406.49 310.91 412.12 311.12 417.72 310.65 C 417.08 311.10 415.79 312.01 415.14 312.46 C 410.38 312.30 405.55 312.38 400.88 311.29 Z" />
</g>
<g id="#9a7e15ff">
<path fill="#9a7e15" opacity="1.00" d=" M 83.80 360.57 C 83.86 360.29 83.98 359.73 84.05 359.44 L 85.35 359.49 C 85.23 386.38 85.28 413.28 85.33 440.17 C 240.92 440.25 396.52 440.24 552.11 440.17 L 553.56 440.16 L 553.65 441.45 C 397.22 441.43 240.79 441.49 84.37 441.42 C 84.15 438.58 83.93 435.75 83.82 432.92 C 83.98 408.81 84.00 384.69 83.80 360.57 Z" />
</g>
<g id="#372300ff">
<path fill="#372300" opacity="1.00" d=" M 552.10 359.69 L 553.41 359.69 C 553.51 386.51 553.19 413.34 553.56 440.16 L 552.11 440.17 C 551.96 413.35 551.99 386.52 552.10 359.69 Z" />
</g>
<g id="#f4ba18ff">
<path fill="#f4ba18" opacity="1.00" d=" M 554.42 360.08 C 555.07 360.02 556.38 359.88 557.04 359.82 C 556.84 379.55 556.97 399.28 556.91 419.02 C 557.02 426.85 556.19 434.78 558.01 442.49 C 558.06 443.49 558.08 444.48 558.08 445.49 C 398.57 445.50 239.05 445.46 79.54 445.51 C 80.14 442.03 80.77 438.54 81.04 435.02 C 81.66 434.53 82.29 434.06 82.93 433.59 L 83.82 432.92 C 83.93 435.75 84.15 438.58 84.37 441.42 C 240.79 441.49 397.22 441.43 553.65 441.45 C 554.14 438.64 554.63 435.80 554.64 432.94 C 554.31 408.66 554.71 384.37 554.42 360.08 Z" />
</g>
<g id="#f1bb1bff">
<path fill="#f1bb1b" opacity="1.00" d=" M 82.35 370.98 C 82.31 367.46 83.00 363.99 83.80 360.57 C 84.00 384.69 83.98 408.81 83.82 432.92 L 82.93 433.59 C 81.90 425.43 82.45 417.20 82.37 409.00 C 82.36 396.33 82.32 383.66 82.35 370.98 Z" />
</g>
<g id="#f0bb1aff">
<path fill="#f0bb1a" opacity="1.00" d=" M 156.12 390.66 C 156.42 390.62 157.03 390.56 157.33 390.52 C 163.79 397.35 169.13 405.14 175.27 412.26 C 175.59 405.27 175.34 398.28 175.45 391.29 C 176.47 391.32 178.51 391.37 179.53 391.40 C 179.52 400.83 179.50 410.26 179.52 419.70 C 178.32 419.66 177.13 419.64 175.93 419.61 C 170.18 412.62 164.78 405.34 158.76 398.57 C 158.61 405.62 158.74 412.67 158.68 419.72 C 157.33 419.70 155.98 419.69 154.63 419.67 C 154.79 410.48 154.46 401.27 154.79 392.09 L 154.79 390.78 L 156.12 390.66 Z" />
</g>
<g id="#a68b2eff">
<path fill="#a68b2e" opacity="1.00" d=" M 136.55 391.10 C 137.84 390.89 139.12 390.65 140.40 390.38 C 141.10 392.16 141.25 394.09 141.24 395.99 C 141.22 403.86 141.13 411.73 141.29 419.60 C 139.78 419.72 138.27 419.83 136.77 419.98 L 137.88 419.56 C 138.39 419.38 139.40 419.00 139.91 418.81 C 140.34 409.98 139.86 401.14 140.00 392.30 C 139.45 392.11 138.35 391.74 137.81 391.55 L 136.55 391.10 Z" />
</g>
<g id="#f2b61cff">
<path fill="#f2b61c" opacity="1.00" d=" M 235.07 395.08 C 235.96 393.51 236.82 391.93 237.64 390.33 C 238.88 390.75 240.12 391.17 241.37 391.60 C 242.52 394.12 243.76 396.60 244.86 399.15 C 246.32 402.38 247.79 405.61 249.22 408.86 C 250.91 412.42 252.51 416.01 254.02 419.66 C 252.58 419.63 251.18 419.63 249.75 419.60 C 248.74 417.18 247.64 414.80 246.45 412.47 C 241.59 412.56 236.72 412.51 231.85 412.53 C 231.56 412.86 230.98 413.52 230.69 413.85 C 229.92 415.78 229.17 417.73 228.44 419.70 C 226.99 419.68 225.53 419.66 224.09 419.65 C 224.63 418.38 225.18 417.11 225.72 415.84 C 228.84 408.93 232.11 402.07 235.07 395.08 M 238.43 396.31 C 236.58 400.66 234.54 404.93 233.10 409.44 C 237.07 409.49 241.05 409.50 245.02 409.44 C 243.87 406.23 242.72 403.03 241.18 399.99 C 240.81 398.89 240.45 397.80 240.10 396.71 C 239.68 396.61 238.85 396.41 238.43 396.31 Z" />
</g>
<g id="#eab81bff">
<path fill="#eab81b" opacity="1.00" d=" M 318.94 391.92 C 319.97 391.51 320.99 391.11 322.02 390.70 C 322.78 390.68 324.30 390.65 325.05 390.64 C 326.06 391.04 327.08 391.44 328.10 391.84 C 328.90 392.72 329.70 393.60 330.51 394.48 C 330.51 396.16 330.49 397.85 330.47 399.53 C 328.75 401.21 326.95 402.81 325.06 404.30 C 326.91 407.00 329.22 409.25 332.00 410.98 C 332.43 409.50 332.58 407.90 333.46 406.60 C 334.30 406.59 335.97 406.57 336.81 406.56 C 336.36 408.89 335.52 411.13 334.46 413.26 C 335.94 415.21 337.63 417.17 337.77 419.76 C 335.88 419.50 334.24 418.60 332.72 417.55 C 330.67 416.65 328.93 418.61 327.27 419.49 C 324.06 419.74 320.76 420.13 317.61 419.31 C 315.57 418.39 313.97 416.78 312.29 415.36 C 312.29 412.80 312.59 410.23 313.61 407.86 C 315.42 406.57 317.17 405.21 318.96 403.90 C 317.95 402.71 317.10 401.41 316.37 400.05 C 316.35 398.00 316.33 395.96 316.37 393.92 C 317.22 393.25 318.08 392.58 318.94 391.92 M 319.63 395.90 C 319.27 398.23 320.87 400.13 321.89 402.06 C 324.32 401.03 326.26 399.28 327.82 397.18 C 327.42 396.56 326.62 395.31 326.22 394.68 C 325.64 394.39 324.48 393.80 323.91 393.50 C 322.41 394.13 320.61 394.47 319.63 395.90 M 316.33 409.84 C 316.46 411.59 316.54 413.36 316.57 415.12 C 320.33 417.01 324.61 416.98 328.45 415.34 C 328.51 414.76 328.64 413.60 328.71 413.02 C 326.21 410.99 323.95 408.68 321.88 406.22 C 319.82 407.07 317.98 408.34 316.33 409.84 Z" />
<path fill="#eab81b" opacity="1.00" d=" M 190.50 407.12 C 190.45 400.61 193.84 394.27 199.89 391.56 C 205.66 390.80 211.75 390.77 216.85 394.00 C 216.29 395.40 215.42 396.64 214.39 397.74 C 212.67 396.64 210.94 395.54 209.26 394.39 C 206.81 394.39 204.39 394.71 201.95 394.76 C 198.38 397.01 194.66 400.30 195.27 404.99 C 194.27 411.18 200.03 416.60 206.01 416.40 C 208.99 416.59 211.52 414.85 214.03 413.53 C 215.79 412.70 217.68 415.94 215.86 416.81 C 211.55 420.57 205.19 420.39 199.98 419.08 C 194.64 417.32 191.96 412.16 190.50 407.12 Z" />
</g>
<g id="#f1b81cff">
<path fill="#f1b81c" opacity="1.00" d=" M 401.21 391.32 C 402.34 391.31 403.48 391.30 404.62 391.30 C 404.69 392.87 404.73 394.45 404.79 396.03 C 405.12 397.32 405.13 398.64 404.82 400.00 C 404.56 404.29 404.70 408.76 406.25 412.81 C 409.25 418.24 418.40 417.40 420.76 411.73 C 423.45 405.27 421.90 398.08 421.43 391.35 C 422.52 391.29 423.62 391.23 424.72 391.17 L 424.72 391.24 C 423.77 398.24 423.61 405.36 424.49 412.38 L 424.57 413.10 C 423.05 415.78 420.92 417.97 418.25 419.50 C 414.14 419.58 409.40 420.82 405.86 418.09 C 404.03 416.81 402.91 414.84 401.63 413.08 C 400.98 405.84 401.23 398.57 401.21 391.32 Z" />
</g>
<g id="#edb91bff">
<path fill="#edb91b" opacity="1.00" d=" M 478.19 401.10 C 480.15 397.47 480.80 392.61 484.66 390.43 L 486.25 390.66 C 486.52 390.99 487.04 391.63 487.30 391.95 C 488.30 393.94 489.24 395.95 490.09 398.01 C 490.67 399.34 491.26 400.68 491.85 402.02 C 494.59 407.88 497.34 413.73 499.87 419.68 C 498.46 419.66 497.05 419.71 495.65 419.62 C 494.33 417.36 493.37 414.92 492.34 412.53 C 487.27 412.80 482.03 411.96 477.07 412.98 C 475.84 415.04 475.04 417.34 474.19 419.59 C 473.13 419.62 471.03 419.68 469.97 419.71 C 470.97 417.15 472.02 414.61 473.21 412.13 C 474.88 408.46 476.51 404.77 478.19 401.10 M 483.93 396.58 C 483.39 398.10 482.82 399.62 482.25 401.13 C 480.91 403.80 479.78 406.58 478.97 409.46 C 482.93 409.50 486.90 409.50 490.86 409.41 C 489.26 404.90 487.19 400.58 485.26 396.21 C 484.93 396.31 484.27 396.49 483.93 396.58 Z" />
</g>
<g id="#f0bb19ff">
<path fill="#f0bb19" opacity="1.00" d=" M 530.12 391.26 C 531.55 391.33 532.98 391.40 534.43 391.49 C 532.98 400.92 535.36 410.44 533.65 419.86 C 532.46 419.70 531.29 419.56 530.13 419.41 C 524.95 412.29 519.21 405.58 513.63 398.76 C 513.30 405.71 513.51 412.68 513.49 419.63 C 512.13 419.69 510.78 419.75 509.43 419.82 C 509.40 410.31 509.45 400.79 509.42 391.27 C 510.35 391.31 512.21 391.38 513.14 391.42 C 518.02 397.78 523.24 403.88 528.08 410.28 C 528.49 410.46 529.32 410.82 529.74 411.01 C 530.02 404.42 529.50 397.83 530.12 391.26 Z" />
</g>
<g id="#e7b51aff">
<path fill="#e7b51a" opacity="1.00" d=" M 105.45 391.35 C 112.20 391.20 118.95 391.23 125.70 391.31 C 125.66 392.38 125.62 393.45 125.58 394.53 C 120.26 394.49 114.93 394.49 109.61 394.58 C 109.59 397.87 109.59 401.16 109.58 404.45 C 114.33 404.56 119.09 404.53 123.85 404.49 C 124.05 405.75 124.24 407.01 124.43 408.28 C 119.47 408.33 114.52 408.29 109.56 408.38 C 109.59 412.16 109.59 415.94 109.59 419.72 C 108.20 419.70 106.81 419.67 105.42 419.67 C 105.47 410.23 105.43 400.79 105.45 391.35 Z" />
</g>
<g id="#d2aa42ff">
<path fill="#d2aa42" opacity="1.00" d=" M 136.55 391.10 L 137.81 391.55 C 138.11 400.88 138.04 410.23 137.88 419.56 L 136.77 419.98 C 136.54 410.36 136.91 400.73 136.55 391.10 Z" />
</g>
<g id="#f2bc21ff">
<path fill="#f2bc21" opacity="1.00" d=" M 137.81 391.55 C 138.35 391.74 139.45 392.11 140.00 392.30 C 139.86 401.14 140.34 409.98 139.91 418.81 C 139.40 419.00 138.39 419.38 137.88 419.56 C 138.04 410.23 138.11 400.88 137.81 391.55 Z" />
</g>
<g id="#f1bb1cff">
<path fill="#f1bb1c" opacity="1.00" d=" M 263.57 391.32 C 269.11 391.24 274.65 391.26 280.18 391.61 C 283.79 393.38 287.08 396.65 286.64 401.01 C 287.23 405.07 284.29 408.33 280.97 410.13 C 282.66 413.53 284.98 416.55 287.18 419.63 C 285.51 419.57 283.85 419.52 282.19 419.47 C 280.61 416.83 279.15 414.10 277.13 411.77 C 276.64 411.47 275.65 410.87 275.16 410.57 C 272.60 410.76 270.06 411.08 267.51 411.38 C 267.56 414.15 267.57 416.91 267.59 419.68 C 266.25 419.70 264.92 419.72 263.59 419.75 C 263.55 410.27 263.57 400.79 263.57 391.32 M 267.56 394.53 C 267.55 398.85 267.56 403.18 267.57 407.51 C 272.74 407.42 279.30 408.70 282.55 403.52 C 282.54 401.86 282.54 400.19 282.55 398.54 C 279.20 393.54 272.75 394.48 267.56 394.53 Z" />
</g>
<g id="#e6b83fff">
<path fill="#e6b83f" opacity="1.00" d=" M 364.60 391.38 L 365.99 391.29 C 365.96 397.53 365.83 403.77 365.98 410.02 C 366.09 412.93 365.59 415.83 364.75 418.61 C 364.43 409.54 364.73 400.46 364.60 391.38 Z" />
</g>
<g id="#e9b81eff">
<path fill="#e9b81e" opacity="1.00" d=" M 365.99 391.29 C 371.32 391.36 376.70 390.94 382.01 391.64 C 384.46 391.92 386.03 394.03 387.72 395.59 C 387.64 397.66 387.57 399.74 387.37 401.81 C 386.45 402.75 385.63 403.78 384.91 404.88 C 387.15 406.62 389.97 408.72 389.44 411.97 C 389.91 415.79 386.15 418.55 382.88 419.44 C 376.76 420.03 370.60 419.77 364.47 419.66 L 364.75 418.61 C 365.59 415.83 366.09 412.93 365.98 410.02 C 365.83 403.77 365.96 397.53 365.99 391.29 M 368.61 394.44 C 368.66 397.43 368.68 400.43 368.68 403.43 C 373.53 402.85 380.25 405.52 383.44 400.56 C 383.58 399.44 383.56 398.30 383.60 397.19 C 382.84 396.16 381.90 395.33 380.80 394.69 C 376.75 394.24 372.67 394.32 368.61 394.44 M 368.53 406.47 L 370.07 407.11 L 368.63 407.07 C 368.63 409.83 368.49 412.60 368.79 415.35 C 369.54 417.01 371.56 416.25 372.99 416.49 C 376.64 416.31 380.80 417.06 384.02 414.94 C 386.52 412.72 384.98 409.54 383.20 407.46 C 382.80 407.44 382.00 407.40 381.60 407.38 C 377.81 404.64 372.81 406.14 368.53 406.47 Z" />
</g>
<g id="#998633ff">
<path fill="#998633" opacity="1.00" d=" M 420.76 411.73 C 421.09 404.93 420.52 398.10 421.43 391.35 C 421.90 398.08 423.45 405.27 420.76 411.73 Z" />
</g>
<g id="#c6a437ff">
<path fill="#c6a437" opacity="1.00" d=" M 424.49 412.38 C 423.61 405.36 423.77 398.24 424.72 391.24 C 425.85 398.18 425.87 405.47 424.49 412.38 Z" />
</g>
<g id="#c8a23fff">
<path fill="#c8a23f" opacity="1.00" d=" M 438.71 391.40 L 439.97 391.30 C 439.68 400.81 440.66 410.36 439.41 419.82 C 437.90 410.45 439.16 400.86 438.71 391.40 Z" />
</g>
<g id="#ecb619ff">
<path fill="#ecb619" opacity="1.00" d=" M 439.97 391.30 C 444.30 391.30 448.64 391.14 452.96 391.46 C 457.54 391.45 461.77 395.33 462.06 399.93 C 463.08 404.28 459.91 407.95 456.46 410.07 C 456.48 410.39 456.53 411.03 456.55 411.35 C 458.80 413.88 460.65 416.73 462.23 419.72 C 460.77 419.67 459.33 419.63 457.88 419.58 C 456.05 416.79 454.19 414.04 452.30 411.30 C 449.25 411.25 446.21 411.23 443.17 411.23 C 443.18 413.98 443.19 416.74 443.21 419.50 C 441.94 419.64 440.66 419.79 439.40 419.96 L 439.41 419.82 C 440.66 410.36 439.68 400.81 439.97 391.30 M 442.08 406.93 L 443.20 406.82 L 443.19 407.58 C 446.52 407.47 449.85 407.45 453.19 407.42 C 454.60 406.40 456.08 405.46 457.61 404.60 C 457.57 401.75 458.55 398.05 455.76 396.14 C 451.94 393.79 447.26 394.63 443.01 394.56 L 442.94 393.40 C 441.57 397.78 441.92 402.40 442.08 406.93 M 442.69 410.36 C 445.97 411.18 449.36 411.19 452.68 410.60 C 449.40 409.81 446.01 409.83 442.69 410.36 Z" />
</g>
<g id="#11120bff">
<path fill="#11120b" opacity="1.00" d=" M 267.56 394.53 C 272.75 394.48 279.20 393.54 282.55 398.54 C 282.54 400.19 282.54 401.86 282.55 403.52 C 279.30 408.70 272.74 407.42 267.57 407.51 C 267.56 403.18 267.55 398.85 267.56 394.53 Z" />
</g>
<g id="#0f1100ff">
<path fill="#0f1100" opacity="1.00" d=" M 319.63 395.90 C 320.61 394.47 322.41 394.13 323.91 393.50 C 324.48 393.80 325.64 394.39 326.22 394.68 C 326.62 395.31 327.42 396.56 327.82 397.18 C 326.26 399.28 324.32 401.03 321.89 402.06 C 320.87 400.13 319.27 398.23 319.63 395.90 Z" />
</g>
<g id="#b79b36ff">
<path fill="#b79b36" opacity="1.00" d=" M 442.08 406.93 C 441.92 402.40 441.57 397.78 442.94 393.40 L 443.01 394.56 C 443.23 398.64 443.22 402.73 443.20 406.82 L 442.08 406.93 Z" />
</g>
<g id="#11110cff">
<path fill="#11110c" opacity="1.00" d=" M 368.61 394.44 C 372.67 394.32 376.75 394.24 380.80 394.69 C 381.90 395.33 382.84 396.16 383.60 397.19 C 383.56 398.30 383.58 399.44 383.44 400.56 C 380.25 405.52 373.53 402.85 368.68 403.43 C 368.68 400.43 368.66 397.43 368.61 394.44 Z" />
</g>
<g id="#11110aff">
<path fill="#11110a" opacity="1.00" d=" M 443.01 394.56 C 447.26 394.63 451.94 393.79 455.76 396.14 C 458.55 398.05 457.57 401.75 457.61 404.60 C 456.08 405.46 454.60 406.40 453.19 407.42 C 449.85 407.45 446.52 407.47 443.19 407.58 L 443.20 406.82 C 443.22 402.73 443.23 398.64 443.01 394.56 Z" />
</g>
<g id="#141004ff">
<path fill="#141004" opacity="1.00" d=" M 238.43 396.31 C 238.85 396.41 239.68 396.61 240.10 396.71 C 240.45 397.80 240.81 398.89 241.18 399.99 C 242.72 403.03 243.87 406.23 245.02 409.44 C 241.05 409.50 237.07 409.49 233.10 409.44 C 234.54 404.93 236.58 400.66 238.43 396.31 Z" />
</g>
<g id="#16100bff">
<path fill="#16100b" opacity="1.00" d=" M 483.93 396.58 C 484.27 396.49 484.93 396.31 485.26 396.21 C 487.19 400.58 489.26 404.90 490.86 409.41 C 486.90 409.50 482.93 409.50 478.97 409.46 C 479.78 406.58 480.91 403.80 482.25 401.13 C 482.82 399.62 483.39 398.10 483.93 396.58 Z" />
</g>
<g id="#121209ff">
<path fill="#121209" opacity="1.00" d=" M 316.33 409.84 C 317.98 408.34 319.82 407.07 321.88 406.22 C 323.95 408.68 326.21 410.99 328.71 413.02 C 328.64 413.60 328.51 414.76 328.45 415.34 C 324.61 416.98 320.33 417.01 316.57 415.12 C 316.54 413.36 316.46 411.59 316.33 409.84 Z" />
</g>
<g id="#bf9b41ff">
<path fill="#bf9b41" opacity="1.00" d=" M 368.53 406.47 C 372.81 406.14 377.81 404.64 381.60 407.38 C 377.76 407.16 373.91 407.24 370.07 407.11 L 368.53 406.47 Z" />
</g>
<g id="#110f0dff">
<path fill="#110f0d" opacity="1.00" d=" M 370.07 407.11 C 373.91 407.24 377.76 407.16 381.60 407.38 C 382.00 407.40 382.80 407.44 383.20 407.46 C 384.98 409.54 386.52 412.72 384.02 414.94 C 380.80 417.06 376.64 416.31 372.99 416.49 C 371.56 416.25 369.54 417.01 368.79 415.35 C 368.49 412.60 368.63 409.83 368.63 407.07 L 370.07 407.11 Z" />
</g>
<g id="#b9922cff">
<path fill="#b9922c" opacity="1.00" d=" M 442.69 410.36 C 446.01 409.83 449.40 409.81 452.68 410.60 C 449.36 411.19 445.97 411.18 442.69 410.36 Z" />
</g>
</svg>
